JustTheBoards000001_forces_filt12Hz.mot
version=1
nRows=16
nColumns=28
inDegrees=yes
endheader
time	R_ground_force_vx	R_ground_force_vy	R_ground_force_vz	R_ground_force_px	R_ground_force_py	R_ground_force_pz	R_ground_torque_x	R_ground_torque_y	R_ground_torque_z	L_ground_force_vx	L_ground_force_vy	L_ground_force_vz	L_ground_force_px	L_ground_force_py	L_ground_force_pz	L_ground_torque_x	L_ground_torque_y	L_ground_torque_z	3_ground_force_vx	3_ground_force_vy	3_ground_force_vz	3_ground_force_px	3_ground_force_py	3_ground_force_pz	3_ground_torque_x	3_ground_torque_y	3_ground_torque_z	
2.339500	  0.000000	  0.000000	  0.000000	  0.000000	  0.000000	  0.000000	  0.000000	  0.000000	  0.000000	 -2.088548	138.769829	  1.479913	 -0.214970	  0.006000	 -0.915233	  0.000000	  0.853785	  0.000000	  0.059578	142.153092	  0.087123	 -0.218812	  0.006000	 -1.477927	  0.000000	  0.130805	  0.000000
2.340000	  0.000000	  0.000000	  0.000000	  0.000000	  0.000000	  0.000000	  0.000000	  0.000000	  0.000000	 -2.087474	138.769027	  1.479894	 -0.214970	  0.006000	 -0.915235	  0.000000	  0.853647	  0.000000	  0.059910	142.153475	  0.086487	 -0.218811	  0.006000	 -1.477925	  0.000000	  0.130543	  0.000000
2.340500	  0.000000	  0.000000	  0.000000	  0.000000	  0.000000	  0.000000	  0.000000	  0.000000	  0.000000	 -2.086368	138.768232	  1.479870	 -0.214970	  0.006000	 -0.915237	  0.000000	  0.853506	  0.000000	  0.060247	142.153869	  0.085803	 -0.218810	  0.006000	 -1.477923	  0.000000	  0.130269	  0.000000
2.341000	  0.000000	  0.000000	  0.000000	  0.000000	  0.000000	  0.000000	  0.000000	  0.000000	  0.000000	 -2.085230	138.767446	  1.479842	 -0.214970	  0.006000	 -0.915240	  0.000000	  0.853362	  0.000000	  0.060590	142.154274	  0.085070	 -0.218809	  0.006000	 -1.477921	  0.000000	  0.129983	  0.000000
2.341500	  0.000000	  0.000000	  0.000000	  0.000000	  0.000000	  0.000000	  0.000000	  0.000000	  0.000000	 -2.084061	138.766669	  1.479810	 -0.214971	  0.006000	 -0.915242	  0.000000	  0.853215	  0.000000	  0.060939	142.154688	  0.084290	 -0.218807	  0.006000	 -1.477919	  0.000000	  0.129683	  0.000000
2.342000	  0.000000	  0.000000	  0.000000	  0.000000	  0.000000	  0.000000	  0.000000	  0.000000	  0.000000	 -2.082861	138.765900	  1.479773	 -0.214971	  0.006000	 -0.915244	  0.000000	  0.853066	  0.000000	  0.061295	142.155111	  0.083461	 -0.218806	  0.006000	 -1.477917	  0.000000	  0.129371	  0.000000
2.342500	  0.000000	  0.000000	  0.000000	  0.000000	  0.000000	  0.000000	  0.000000	  0.000000	  0.000000	 -2.081630	138.765138	  1.479732	 -0.214972	  0.006000	 -0.915247	  0.000000	  0.852915	  0.000000	  0.061659	142.155542	  0.082585	 -0.218804	  0.006000	 -1.477915	  0.000000	  0.129044	  0.000000
2.343000	  0.000000	  0.000000	  0.000000	  0.000000	  0.000000	  0.000000	  0.000000	  0.000000	  0.000000	 -2.080371	138.764385	  1.479688	 -0.214973	  0.006000	 -0.915249	  0.000000	  0.852763	  0.000000	  0.062031	142.155982	  0.081662	 -0.218802	  0.006000	 -1.477913	  0.000000	  0.128702	  0.000000
2.343500	  0.000000	  0.000000	  0.000000	  0.000000	  0.000000	  0.000000	  0.000000	  0.000000	  0.000000	 -2.079085	138.763639	  1.479640	 -0.214973	  0.006000	 -0.915251	  0.000000	  0.852610	  0.000000	  0.062412	142.156430	  0.080692	 -0.218800	  0.006000	 -1.477911	  0.000000	  0.128346	  0.000000
2.344000	  0.000000	  0.000000	  0.000000	  0.000000	  0.000000	  0.000000	  0.000000	  0.000000	  0.000000	 -2.077774	138.762902	  1.479589	 -0.214974	  0.006000	 -0.915254	  0.000000	  0.852455	  0.000000	  0.062801	142.156887	  0.079676	 -0.218797	  0.006000	 -1.477909	  0.000000	  0.127973	  0.000000
2.344500	  0.000000	  0.000000	  0.000000	  0.000000	  0.000000	  0.000000	  0.000000	  0.000000	  0.000000	 -2.076440	138.762172	  1.479536	 -0.214975	  0.006000	 -0.915256	  0.000000	  0.852301	  0.000000	  0.063199	142.157352	  0.078612	 -0.218795	  0.006000	 -1.477907	  0.000000	  0.127586	  0.000000
2.345000	  0.000000	  0.000000	  0.000000	  0.000000	  0.000000	  0.000000	  0.000000	  0.000000	  0.000000	 -2.075085	138.761451	  1.479484	 -0.214976	  0.006000	 -0.915258	  0.000000	  0.852145	  0.000000	  0.063608	142.157824	  0.077503	 -0.218792	  0.006000	 -1.477906	  0.000000	  0.127182	  0.000000
2.345500	  0.000000	  0.000000	  0.000000	  0.000000	  0.000000	  0.000000	  0.000000	  0.000000	  0.000000	 -2.073711	138.760740	  1.479434	 -0.214977	  0.006000	 -0.915261	  0.000000	  0.851990	  0.000000	  0.064026	142.158305	  0.076346	 -0.218790	  0.006000	 -1.477904	  0.000000	  0.126763	  0.000000
2.346000	  0.000000	  0.000000	  0.000000	  0.000000	  0.000000	  0.000000	  0.000000	  0.000000	  0.000000	 -2.072319	138.760040	  1.479387	 -0.214979	  0.006000	 -0.915263	  0.000000	  0.851834	  0.000000	  0.064455	142.158792	  0.075144	 -0.218787	  0.006000	 -1.477902	  0.000000	  0.126328	  0.000000
2.346500	  0.000000	  0.000000	  0.000000	  0.000000	  0.000000	  0.000000	  0.000000	  0.000000	  0.000000	 -2.070912	138.759354	  1.479346	 -0.214980	  0.006000	 -0.915265	  0.000000	  0.851678	  0.000000	  0.064895	142.159285	  0.073896	 -0.218784	  0.006000	 -1.477901	  0.000000	  0.125878	  0.000000
2.347000	  0.000000	  0.000000	  0.000000	  0.000000	  0.000000	  0.000000	  0.000000	  0.000000	  0.000000	 -2.069490	138.758684	  1.479310	 -0.214981	  0.006000	 -0.915267	  0.000000	  0.851522	  0.000000	  0.065346	142.159784	  0.072603	 -0.218781	  0.006000	 -1.477900	  0.000000	  0.125411	  0.000000
